# xmcd
#
# Track frame offsets:
#  150
#  11329
#  24764
#  38570
#  48959
#  59663
#  73418
#  90392
#  102589
#  112327
#  121449
#  135174
#
# Disc length: 1980 seconds
#
# Revision: 0
# Processed by: cddbd v1.5.1PL2 Copyright (c) Steve Scherf et al.
# Submitted via: Collectorz.com_Music_Collector 6.10
#
DISCID=9d07ba0c
DTITLE=Cash, Johnny - Johnny Cash På Österåker
DYEAR=1900
DGENRE=
TTITLE0=Orleans Parish Prison
TTITLE1=Jacob Green
TTITLE2=Me And Bobby McGee
TTITLE3=The Prisoners Song
TTITLE4=The Invertebraes
TTITLE5=Silver Haired Daddy Of Mine
TTITLE6=City Jail
TTITLE7=Life Of A Prisoner
TTITLE8=Looking Back In Anger
TTITLE9=Nobody Cared
TTITLE10=Help Me Make It Through The Night
TTITLE11=I Saw A Man
EXTD=
EXTT0=
EXTT1=
EXTT2=
EXTT3=
EXTT4=
EXTT5=
EXTT6=
EXTT7=
EXTT8=
EXTT9=
EXTT10=
EXTT11=
PLAYORDER=
